<mxfile host="app.diagrams.net" modified="2021-04-05T18:26:55.369Z" agent="5.0 (Macintosh; Intel Mac OS X 11_2_3) AppleWebKit/537.36 (KHTML, like Gecko) Chrome/89.0.4389.90 Safari/537.36" etag="rWpWRIpQf-T6W1fUjQPY" version="14.5.7" type="github">
  <diagram id="AxwiWNN1KDfrD9ET3Yjj" name="Page-1">
    <mxGraphModel dx="1426" dy="719" grid="1" gridSize="10" guides="1" tooltips="1" connect="1" arrows="1" fold="1" page="1" pageScale="1" pageWidth="827" pageHeight="1169" math="0" shadow="0">
      <root>
        <mxCell id="0" />
        <mxCell id="1" parent="0" />
        <mxCell id="7P_VsgA5rQCgvv0SyzE5-1" value="小程序框架" style="rounded=0;whiteSpace=wrap;html=1;align=left;verticalAlign=top;fontSize=18;" vertex="1" parent="1">
          <mxGeometry x="169" y="150" width="491" height="390" as="geometry" />
        </mxCell>
        <mxCell id="7P_VsgA5rQCgvv0SyzE5-2" value="JS Bridge" style="rounded=0;whiteSpace=wrap;html=1;fillColor=#d5e8d4;strokeColor=#82b366;" vertex="1" parent="1">
          <mxGeometry x="190" y="400" width="450" height="60" as="geometry" />
        </mxCell>
        <mxCell id="7P_VsgA5rQCgvv0SyzE5-3" value="JS Core / V8" style="rounded=0;whiteSpace=wrap;html=1;fillColor=#60a917;strokeColor=#2D7600;fontColor=#ffffff;" vertex="1" parent="1">
          <mxGeometry x="190" y="330" width="220" height="60" as="geometry" />
        </mxCell>
        <mxCell id="7P_VsgA5rQCgvv0SyzE5-5" value="WebView" style="rounded=0;whiteSpace=wrap;html=1;fillColor=#1ba1e2;strokeColor=#006EAF;fontColor=#ffffff;" vertex="1" parent="1">
          <mxGeometry x="420" y="330" width="220" height="60" as="geometry" />
        </mxCell>
        <mxCell id="7P_VsgA5rQCgvv0SyzE5-6" value="" style="rounded=0;whiteSpace=wrap;html=1;dashed=1;strokeColor=#00CC00;" vertex="1" parent="1">
          <mxGeometry x="190" y="190" width="220" height="130" as="geometry" />
        </mxCell>
        <mxCell id="7P_VsgA5rQCgvv0SyzE5-7" value="" style="rounded=0;whiteSpace=wrap;html=1;dashed=1;strokeColor=#0066CC;" vertex="1" parent="1">
          <mxGeometry x="420" y="190" width="220" height="130" as="geometry" />
        </mxCell>
        <mxCell id="7P_VsgA5rQCgvv0SyzE5-8" value="Native(提供原生能力)" style="rounded=0;whiteSpace=wrap;html=1;fillColor=#f8cecc;strokeColor=#b85450;" vertex="1" parent="1">
          <mxGeometry x="189" y="470" width="450" height="60" as="geometry" />
        </mxCell>
        <mxCell id="7P_VsgA5rQCgvv0SyzE5-10" value="逻辑层框架" style="rounded=0;whiteSpace=wrap;html=1;fillColor=#1ba1e2;strokeColor=#006EAF;fontColor=#ffffff;" vertex="1" parent="1">
          <mxGeometry x="197" y="200" width="206" height="30" as="geometry" />
        </mxCell>
        <mxCell id="7P_VsgA5rQCgvv0SyzE5-11" value="视图层框架" style="rounded=0;whiteSpace=wrap;html=1;fillColor=#1ba1e2;strokeColor=#006EAF;fontColor=#ffffff;" vertex="1" parent="1">
          <mxGeometry x="427" y="200" width="206" height="30" as="geometry" />
        </mxCell>
        <mxCell id="7P_VsgA5rQCgvv0SyzE5-12" value="APP" style="rounded=0;whiteSpace=wrap;html=1;fillColor=#1ba1e2;strokeColor=#006EAF;fontColor=#ffffff;" vertex="1" parent="1">
          <mxGeometry x="197" y="240" width="206" height="30" as="geometry" />
        </mxCell>
        <mxCell id="7P_VsgA5rQCgvv0SyzE5-13" value="Page A" style="rounded=0;whiteSpace=wrap;html=1;fillColor=#1ba1e2;strokeColor=#006EAF;fontColor=#ffffff;" vertex="1" parent="1">
          <mxGeometry x="197" y="280" width="93" height="30" as="geometry" />
        </mxCell>
        <mxCell id="7P_VsgA5rQCgvv0SyzE5-15" value="Page B" style="rounded=0;whiteSpace=wrap;html=1;fillColor=#1ba1e2;strokeColor=#006EAF;fontColor=#ffffff;" vertex="1" parent="1">
          <mxGeometry x="310" y="280" width="93" height="30" as="geometry" />
        </mxCell>
        <mxCell id="7P_VsgA5rQCgvv0SyzE5-16" value="web component" style="rounded=0;whiteSpace=wrap;html=1;fillColor=#1ba1e2;strokeColor=#006EAF;fontColor=#ffffff;" vertex="1" parent="1">
          <mxGeometry x="427" y="240" width="206" height="30" as="geometry" />
        </mxCell>
        <mxCell id="7P_VsgA5rQCgvv0SyzE5-19" value="native component" style="rounded=0;whiteSpace=wrap;html=1;fillColor=#1ba1e2;strokeColor=#006EAF;fontColor=#ffffff;" vertex="1" parent="1">
          <mxGeometry x="427" y="280" width="206" height="30" as="geometry" />
        </mxCell>
      </root>
    </mxGraphModel>
  </diagram>
</mxfile>
